<svg xmlns="http://www.w3.org/2000/svg" viewBox="0 0 1600 1000" preserveAspectRatio="xMidYMid slice"><defs>
  <linearGradient id="sky" x1="0" y1="0" x2="0" y2="1"><stop offset="0" stop-color="#9db8d4"/><stop offset="1" stop-color="#e3ecf3"/></linearGradient>
  <radialGradient id="glow"><stop offset="0" stop-color="#fff4d6" stop-opacity="0.9"/><stop offset="1" stop-color="#fff4d6" stop-opacity="0"/></radialGradient>
  <radialGradient id="vig" cx="0.5" cy="0.45" r="0.75"><stop offset="0.55" stop-color="#1a202c" stop-opacity="0"/><stop offset="1" stop-color="#1a202c" stop-opacity="0.38"/></radialGradient>
  <linearGradient id="haze" x1="0" y1="0" x2="0" y2="1"><stop offset="0.55" stop-color="#ffffff" stop-opacity="0"/><stop offset="1" stop-color="#ffffff" stop-opacity="0.35"/></linearGradient>
  <linearGradient id="wall" x1="0" y1="0" x2="0" y2="1"><stop offset="0" stop-color="#46536b"/><stop offset="1" stop-color="#2f3a4e"/></linearGradient>
  <linearGradient id="labwall" x1="0" y1="0" x2="0" y2="1"><stop offset="0" stop-color="#33424f"/><stop offset="1" stop-color="#24303c"/></linearGradient>
  <linearGradient id="floor" x1="0" y1="0" x2="0" y2="1"><stop offset="0" stop-color="#9a7b58"/><stop offset="1" stop-color="#6e563d"/></linearGradient>
  <linearGradient id="avbg" x1="0" y1="0" x2="1" y2="1"><stop offset="0" stop-color="#e8edf3"/><stop offset="1" stop-color="#cfd9e4"/></linearGradient>
  <filter id="grain"><feTurbulence type="fractalNoise" baseFrequency="0.9" numOctaves="2" stitchTiles="stitch"/><feColorMatrix type="matrix" values="0 0 0 0 0 0 0 0 0 0 0 0 0 0 0 0 0 0 0.05 0"/></filter>
</defs><rect width="1600" height="1000" fill="url(#sky)"/><circle cx="1216.0" cy="260.0" r="220.0" fill="url(#glow)"/><path d="M487.5 121.4 q 8.0 -7.958622597157955 15.9 0 q 8.0 -7.958622597157955 15.9 0" stroke="#2d3748" stroke-width="2" fill="none" opacity="0.5" stroke-linecap="round"/><path d="M871.3 73.6 q 8.0 -8.020246834494174 16.0 0 q 8.0 -8.020246834494174 16.0 0" stroke="#2d3748" stroke-width="2" fill="none" opacity="0.5" stroke-linecap="round"/><path d="M578.1 72.7 q 6.8 -6.808999625965953 13.6 0 q 6.8 -6.808999625965953 13.6 0" stroke="#2d3748" stroke-width="2" fill="none" opacity="0.5" stroke-linecap="round"/><path d="M814.9 124.3 q 7.7 -7.6519450237974524 15.3 0 q 7.7 -7.6519450237974524 15.3 0" stroke="#2d3748" stroke-width="2" fill="none" opacity="0.5" stroke-linecap="round"/><g opacity="0.55"><rect x="29.0" y="451.0" width="326.0" height="10" fill="#48566b"/><rect x="32.0" y="460.0" width="320.0" height="200.0" rx="2" fill="#48566b"/><path d="M170.0 660.0 v-46.0 a22.0 22.0 0 0 1 44.0 0 v46.0 z" fill="#242e3d"/><rect x="64.3" y="490.9" width="34.1" height="40.8" rx="2" fill="#e8d9a8" opacity="0.45"/><rect x="119.3" y="490.9" width="34.1" height="40.8" rx="2" fill="#e8d9a8" opacity="0.78"/><rect x="174.4" y="490.9" width="34.1" height="40.8" rx="2" fill="#e8d9a8" opacity="0.56"/><rect x="229.4" y="490.9" width="34.1" height="40.8" rx="2" fill="#e8d9a8" opacity="0.89"/><rect x="284.5" y="490.9" width="34.1" height="40.8" rx="2" fill="#e8d9a8" opacity="0.67"/><rect x="64.3" y="558.9" width="34.1" height="40.8" rx="2" fill="#e8d9a8" opacity="0.67"/><rect x="119.3" y="558.9" width="34.1" height="40.8" rx="2" fill="#e8d9a8" opacity="0.45"/><rect x="229.4" y="558.9" width="34.1" height="40.8" rx="2" fill="#e8d9a8" opacity="0.56"/><rect x="284.5" y="558.9" width="34.1" height="40.8" rx="2" fill="#e8d9a8" opacity="0.89"/><rect x="32.0" y="478.0" width="320.0" height="2.5" fill="#d4a853" opacity="0.85"/></g><rect x="317.0" y="331.0" width="966.0" height="10" fill="#3d4a5c"/><rect x="320.0" y="340.0" width="960.0" height="340.0" rx="2" fill="#3d4a5c"/><path d="M778.0 680.0 v-93.6 a22.0 22.0 0 0 1 44.0 0 v93.6 z" fill="#242e3d"/><rect x="403.7" y="386.3" width="56.9" height="46.2" rx="2" fill="#e8d9a8" opacity="0.45"/><rect x="495.4" y="386.3" width="56.9" height="46.2" rx="2" fill="#e8d9a8" opacity="0.78"/><rect x="587.2" y="386.3" width="56.9" height="46.2" rx="2" fill="#e8d9a8" opacity="0.56"/><rect x="678.9" y="386.3" width="56.9" height="46.2" rx="2" fill="#e8d9a8" opacity="0.89"/><rect x="770.6" y="386.3" width="56.9" height="46.2" rx="2" fill="#e8d9a8" opacity="0.67"/><rect x="862.4" y="386.3" width="56.9" height="46.2" rx="2" fill="#e8d9a8" opacity="0.45"/><rect x="954.1" y="386.3" width="56.9" height="46.2" rx="2" fill="#e8d9a8" opacity="0.78"/><rect x="1045.8" y="386.3" width="56.9" height="46.2" rx="2" fill="#e8d9a8" opacity="0.56"/><rect x="1137.6" y="386.3" width="56.9" height="46.2" rx="2" fill="#e8d9a8" opacity="0.89"/><rect x="403.7" y="463.4" width="56.9" height="46.2" rx="2" fill="#e8d9a8" opacity="0.67"/><rect x="495.4" y="463.4" width="56.9" height="46.2" rx="2" fill="#e8d9a8" opacity="0.45"/><rect x="587.2" y="463.4" width="56.9" height="46.2" rx="2" fill="#e8d9a8" opacity="0.78"/><rect x="678.9" y="463.4" width="56.9" height="46.2" rx="2" fill="#e8d9a8" opacity="0.56"/><rect x="770.6" y="463.4" width="56.9" height="46.2" rx="2" fill="#e8d9a8" opacity="0.89"/><rect x="862.4" y="463.4" width="56.9" height="46.2" rx="2" fill="#e8d9a8" opacity="0.67"/><rect x="954.1" y="463.4" width="56.9" height="46.2" rx="2" fill="#e8d9a8" opacity="0.45"/><rect x="1045.8" y="463.4" width="56.9" height="46.2" rx="2" fill="#e8d9a8" opacity="0.78"/><rect x="1137.6" y="463.4" width="56.9" height="46.2" rx="2" fill="#e8d9a8" opacity="0.56"/><rect x="403.7" y="540.5" width="56.9" height="46.2" rx="2" fill="#e8d9a8" opacity="0.89"/><rect x="495.4" y="540.5" width="56.9" height="46.2" rx="2" fill="#e8d9a8" opacity="0.67"/><rect x="587.2" y="540.5" width="56.9" height="46.2" rx="2" fill="#e8d9a8" opacity="0.45"/><rect x="678.9" y="540.5" width="56.9" height="46.2" rx="2" fill="#e8d9a8" opacity="0.78"/><rect x="862.4" y="540.5" width="56.9" height="46.2" rx="2" fill="#e8d9a8" opacity="0.89"/><rect x="954.1" y="540.5" width="56.9" height="46.2" rx="2" fill="#e8d9a8" opacity="0.67"/><rect x="1045.8" y="540.5" width="56.9" height="46.2" rx="2" fill="#e8d9a8" opacity="0.45"/><rect x="1137.6" y="540.5" width="56.9" height="46.2" rx="2" fill="#e8d9a8" opacity="0.78"/><rect x="320.0" y="370.6" width="960.0" height="2.5" fill="#d4a853" opacity="0.85"/><line x1="240.0" y1="680.0" x2="240.0" y2="540.0" stroke="#3a4556" stroke-width="3.5"/><path d="M240.0 540.0 q 24 7 48 0 l 0 24 q -24 7 -48 0 z" fill="#d4a853"/><path d="M0 682.0 Q 400.0 632.0 800.0 682.0 T 1600.0 682.0 L 1600.0 1000.0 L 0 1000.0 Z" fill="#6d8a5e" opacity="1"/><path d="M0 770.0 Q 400.0 740.0 800.0 770.0 T 1600.0 770.0 L 1600.0 1000.0 L 0 1000.0 Z" fill="#46603e" opacity="1"/><polygon points="774.0,680.0 826.0,680.0 1376.0,1000.0 224.0,1000.0" fill="#ddd0b8" opacity="0.9"/><line x1="109.5" y1="739.7" x2="109.5" y2="676.8" stroke="#4a3f35" stroke-width="7.9"/><circle cx="109.5" cy="641.9" r="40.2" fill="#35503f"/><circle cx="83.3" cy="662.8" r="26.2" fill="#35503f"/><circle cx="137.5" cy="659.3" r="27.9" fill="#35503f"/><line x1="156.6" y1="817.2" x2="156.6" y2="744.1" stroke="#4a3f35" stroke-width="9.1"/><circle cx="156.6" cy="703.5" r="46.7" fill="#3f5a4a"/><circle cx="126.1" cy="727.9" r="30.5" fill="#3f5a4a"/><circle cx="189.1" cy="723.8" r="32.5" fill="#3f5a4a"/><line x1="1368.5" y1="821.6" x2="1368.5" y2="742.5" stroke="#4a3f35" stroke-width="9.9"/><circle cx="1368.5" cy="698.5" r="50.6" fill="#35503f"/><circle cx="1335.5" cy="724.9" r="33.0" fill="#35503f"/><circle cx="1403.7" cy="720.5" r="35.2" fill="#35503f"/><line x1="1406.6" y1="743.7" x2="1406.6" y2="682.5" stroke="#4a3f35" stroke-width="7.7"/><circle cx="1406.6" cy="648.5" r="39.1" fill="#35503f"/><circle cx="1381.0" cy="668.9" r="25.5" fill="#35503f"/><circle cx="1433.8" cy="665.5" r="27.2" fill="#35503f"/><line x1="77.5" y1="803.7" x2="77.5" y2="759.2" stroke="#4a3f35" stroke-width="5.6"/><circle cx="77.5" cy="734.5" r="28.4" fill="#3f5a4a"/><circle cx="59.0" cy="749.4" r="18.5" fill="#3f5a4a"/><circle cx="97.3" cy="746.9" r="19.8" fill="#3f5a4a"/><ellipse cx="358.7" cy="971.4" rx="22.9" ry="4.9" fill="#1a202c" opacity="0.16"/><circle cx="358.7" cy="919.8" r="8.6" fill="#8a6248"/><rect x="348.7" y="928.4" width="20.1" height="43.0" rx="10.0" fill="#1a202c"/><rect x="349.4" y="958.5" width="18.6" height="12.9" rx="2.5" fill="#242e3d"/><ellipse cx="752.6" cy="812.2" rx="25.3" ry="5.4" fill="#1a202c" opacity="0.16"/><circle cx="752.6" cy="755.3" r="9.5" fill="#8a6248"/><rect x="741.5" y="764.8" width="22.1" height="47.4" rx="11.1" fill="#2d3748"/><rect x="742.3" y="798.0" width="20.5" height="14.2" rx="2.5" fill="#242e3d"/><ellipse cx="385.4" cy="862.0" rx="26.3" ry="5.6" fill="#1a202c" opacity="0.16"/><circle cx="385.4" cy="802.8" r="9.9" fill="#8a6248"/><rect x="373.9" y="812.7" width="23.0" height="49.3" rx="11.5" fill="#2d3748"/><rect x="374.8" y="847.2" width="21.4" height="14.8" rx="2.5" fill="#242e3d"/><ellipse cx="882.9" cy="1007.2" rx="22.6" ry="4.8" fill="#1a202c" opacity="0.16"/><circle cx="882.9" cy="956.5" r="8.5" fill="#8a6248"/><rect x="873.0" y="964.9" width="19.7" height="42.3" rx="9.9" fill="#1a202c"/><rect x="873.7" y="994.5" width="18.3" height="12.7" rx="2.5" fill="#242e3d"/><ellipse cx="596.2" cy="892.5" rx="30.8" ry="6.5" fill="#1a202c" opacity="0.16"/><circle cx="596.2" cy="823.2" r="11.5" fill="#8a6248"/><rect x="582.8" y="834.7" width="26.9" height="57.7" rx="13.5" fill="#2d3748"/><rect x="583.7" y="875.2" width="25.0" height="17.3" rx="2.5" fill="#242e3d"/><ellipse cx="553.6" cy="929.0" rx="28.0" ry="5.9" fill="#1a202c" opacity="0.16"/><circle cx="553.6" cy="866.0" r="10.5" fill="#8a6248"/><line x1="543.1" y1="883.5" x2="529.1" y2="859.0" stroke="#2d3748" stroke-width="7.0" stroke-linecap="round"/><line x1="564.1" y1="883.5" x2="578.1" y2="859.0" stroke="#2d3748" stroke-width="7.0" stroke-linecap="round"/><rect x="541.3" y="876.5" width="24.5" height="52.5" rx="12.2" fill="#2d3748"/><rect x="542.2" y="913.3" width="22.7" height="15.7" rx="2.5" fill="#242e3d"/><ellipse cx="628.7" cy="810.1" rx="27.8" ry="5.9" fill="#1a202c" opacity="0.16"/><circle cx="628.7" cy="747.5" r="10.4" fill="#8a6248"/><line x1="618.3" y1="764.9" x2="604.4" y2="740.5" stroke="#1a202c" stroke-width="7.0" stroke-linecap="round"/><line x1="639.2" y1="764.9" x2="653.1" y2="740.5" stroke="#1a202c" stroke-width="7.0" stroke-linecap="round"/><rect x="616.5" y="757.9" width="24.4" height="52.2" rx="12.2" fill="#1a202c"/><rect x="617.4" y="794.4" width="22.6" height="15.7" rx="2.5" fill="#242e3d"/><ellipse cx="1176.2" cy="863.0" rx="29.6" ry="6.3" fill="#1a202c" opacity="0.16"/><circle cx="1176.2" cy="796.5" r="11.1" fill="#8a6248"/><rect x="1163.2" y="807.6" width="25.9" height="55.4" rx="12.9" fill="#2d3748"/><rect x="1164.2" y="846.4" width="24.0" height="16.6" rx="2.5" fill="#242e3d"/><rect width="1600" height="1000" fill="url(#haze)" opacity="0.5"/><rect width="1600" height="1000" fill="url(#vig)"/><rect width="1600" height="1000" filter="url(#grain)" opacity="0.55"/></svg>
