<svg xmlns="http://www.w3.org/2000/svg" viewBox="0 0 1600 1000" preserveAspectRatio="xMidYMid slice"><defs>
  <linearGradient id="sky" x1="0" y1="0" x2="0" y2="1"><stop offset="0" stop-color="#9db8d4"/><stop offset="1" stop-color="#e3ecf3"/></linearGradient>
  <radialGradient id="glow"><stop offset="0" stop-color="#fff4d6" stop-opacity="0.9"/><stop offset="1" stop-color="#fff4d6" stop-opacity="0"/></radialGradient>
  <radialGradient id="vig" cx="0.5" cy="0.45" r="0.75"><stop offset="0.55" stop-color="#1a202c" stop-opacity="0"/><stop offset="1" stop-color="#1a202c" stop-opacity="0.38"/></radialGradient>
  <linearGradient id="haze" x1="0" y1="0" x2="0" y2="1"><stop offset="0.55" stop-color="#ffffff" stop-opacity="0"/><stop offset="1" stop-color="#ffffff" stop-opacity="0.35"/></linearGradient>
  <linearGradient id="wall" x1="0" y1="0" x2="0" y2="1"><stop offset="0" stop-color="#46536b"/><stop offset="1" stop-color="#2f3a4e"/></linearGradient>
  <linearGradient id="labwall" x1="0" y1="0" x2="0" y2="1"><stop offset="0" stop-color="#33424f"/><stop offset="1" stop-color="#24303c"/></linearGradient>
  <linearGradient id="floor" x1="0" y1="0" x2="0" y2="1"><stop offset="0" stop-color="#9a7b58"/><stop offset="1" stop-color="#6e563d"/></linearGradient>
  <linearGradient id="avbg" x1="0" y1="0" x2="1" y2="1"><stop offset="0" stop-color="#e8edf3"/><stop offset="1" stop-color="#cfd9e4"/></linearGradient>
  <filter id="grain"><feTurbulence type="fractalNoise" baseFrequency="0.9" numOctaves="2" stitchTiles="stitch"/><feColorMatrix type="matrix" values="0 0 0 0 0 0 0 0 0 0 0 0 0 0 0 0 0 0 0.05 0"/></filter>
</defs><rect width="1600" height="1000" fill="url(#wall)"/><rect y="680.0" width="1600" height="320.0" fill="url(#floor)"/><line x1="400.0" y1="680.0" x2="-720.0" y2="1000.0" stroke="#3a2f22" stroke-width="2" opacity="0.25"/><line x1="533.3" y1="680.0" x2="-213.3" y2="1000.0" stroke="#3a2f22" stroke-width="2" opacity="0.25"/><line x1="666.7" y1="680.0" x2="293.3" y2="1000.0" stroke="#3a2f22" stroke-width="2" opacity="0.25"/><line x1="800.0" y1="680.0" x2="800.0" y2="1000.0" stroke="#3a2f22" stroke-width="2" opacity="0.25"/><line x1="933.3" y1="680.0" x2="1306.7" y2="1000.0" stroke="#3a2f22" stroke-width="2" opacity="0.25"/><line x1="1066.7" y1="680.0" x2="1813.3" y2="1000.0" stroke="#3a2f22" stroke-width="2" opacity="0.25"/><line x1="1200.0" y1="680.0" x2="2320.0" y2="1000.0" stroke="#3a2f22" stroke-width="2" opacity="0.25"/><rect x="88.0" y="92.0" width="784.0" height="416.0" rx="6" fill="#8a6f52"/><rect x="96.0" y="100.0" width="768.0" height="400.0" rx="4" fill="#22392f"/><text x="120.0" y="152.0" font-family="Georgia, serif" font-size="34" fill="#e8bc65" opacity="0.9">Aa Bb Cc</text><text x="120.0" y="192.0" font-family="Georgia, serif" font-size="26" fill="#d7e0ea" opacity="0.7">1 + 2 = 3</text><path d="M278.0 229.2 q 13.0 -9.561684655025601 25.9 -0.48052486404776573" stroke="#d7e0ea" stroke-width="2" fill="none" opacity="0.65" stroke-linecap="round"/><path d="M332.7 290.7 q 26.6 -7.526367232203484 53.2 1.1528636431321502" stroke="#d7e0ea" stroke-width="2" fill="none" opacity="0.65" stroke-linecap="round"/><path d="M333.6 210.4 q 11.6 -12.986288895830512 23.1 1.2064380329102278" stroke="#d7e0ea" stroke-width="2" fill="none" opacity="0.65" stroke-linecap="round"/><path d="M318.3 444.0 q 21.6 -11.234295818954706 43.2 -0.9317053174600005" stroke="#d7e0ea" stroke-width="2" fill="none" opacity="0.65" stroke-linecap="round"/><path d="M135.9 280.7 q 18.5 -12.024552309885621 37.0 -0.0889219269156456" stroke="#d7e0ea" stroke-width="2" fill="none" opacity="0.65" stroke-linecap="round"/><path d="M483.9 341.1 q 23.4 -9.680069021880627 46.8 -1.6114051835611463" stroke="#d7e0ea" stroke-width="2" fill="none" opacity="0.65" stroke-linecap="round"/><rect x="1088.0" y="80.0" width="384.0" height="440.0" rx="4" fill="url(#sky)" opacity="0.95"/><line x1="1216.0" y1="80.0" x2="1216.0" y2="520.0" stroke="#242e3d" stroke-width="5"/><line x1="1344.0" y1="80.0" x2="1344.0" y2="520.0" stroke="#242e3d" stroke-width="5"/><line x1="1088.0" y1="300.0" x2="1472.0" y2="300.0" stroke="#242e3d" stroke-width="5"/><polygon points="1088.0,520.0 1472.0,520.0 1817.6,1000.0 896.0,1000.0" fill="#e8bc65" opacity="0.1"/><line x1="512.0" y1="0" x2="512.0" y2="90.0" stroke="#242e3d" stroke-width="3"/><path d="M496.0 90.0 h32 l8 14 h-48 z" fill="#2d3748"/><circle cx="512.0" cy="106.0" r="7" fill="#e8bc65" opacity="0.9"/><circle cx="265.6" cy="662.8" r="5.4" fill="#8a6248"/><rect x="259.3" y="668.2" width="12.6" height="27.0" rx="6.3" fill="#2d3748"/><rect x="259.7" y="687.1" width="11.7" height="8.1" rx="2.5" fill="#242e3d"/><rect x="235.0" y="688.0" width="61.2" height="6.3" rx="3" fill="#b98d5e"/><rect x="237.0" y="694.3" width="3.6" height="11.7" fill="#5c4a36"/><rect x="290.6" y="694.3" width="3.6" height="11.7" fill="#5c4a36"/><circle cx="643.9" cy="662.8" r="5.4" fill="#8a6248"/><rect x="637.6" y="668.2" width="12.6" height="27.0" rx="6.3" fill="#1a202c"/><rect x="638.1" y="687.1" width="11.7" height="8.1" rx="2.5" fill="#242e3d"/><rect x="613.3" y="688.0" width="61.2" height="6.3" rx="3" fill="#b98d5e"/><rect x="615.3" y="694.3" width="3.6" height="11.7" fill="#5c4a36"/><rect x="668.9" y="694.3" width="3.6" height="11.7" fill="#5c4a36"/><circle cx="1032.4" cy="662.8" r="5.4" fill="#8a6248"/><rect x="1026.1" y="668.2" width="12.6" height="27.0" rx="6.3" fill="#4a5568"/><rect x="1026.6" y="687.1" width="11.7" height="8.1" rx="2.5" fill="#242e3d"/><rect x="1001.8" y="688.0" width="61.2" height="6.3" rx="3" fill="#b98d5e"/><rect x="1003.8" y="694.3" width="3.6" height="11.7" fill="#5c4a36"/><rect x="1057.4" y="694.3" width="3.6" height="11.7" fill="#5c4a36"/><circle cx="257.6" cy="727.6" r="8.1" fill="#8a6248"/><rect x="248.1" y="735.7" width="18.9" height="40.5" rx="9.5" fill="#1a202c"/><rect x="248.8" y="764.1" width="17.6" height="12.2" rx="2.5" fill="#242e3d"/><rect x="211.7" y="765.4" width="91.8" height="9.5" rx="3" fill="#b98d5e"/><rect x="213.7" y="774.9" width="5.4" height="17.6" fill="#5c4a36"/><rect x="296.1" y="774.9" width="5.4" height="17.6" fill="#5c4a36"/><circle cx="644.7" cy="727.6" r="8.1" fill="#8a6248"/><rect x="635.3" y="735.7" width="18.9" height="40.5" rx="9.5" fill="#4a5568"/><rect x="635.9" y="764.1" width="17.6" height="12.2" rx="2.5" fill="#242e3d"/><rect x="598.8" y="765.4" width="91.8" height="9.5" rx="3" fill="#b98d5e"/><rect x="600.8" y="774.9" width="5.4" height="17.6" fill="#5c4a36"/><rect x="683.2" y="774.9" width="5.4" height="17.6" fill="#5c4a36"/><circle cx="1024.0" cy="727.6" r="8.1" fill="#8a6248"/><rect x="1014.6" y="735.7" width="18.9" height="40.5" rx="9.5" fill="#2d3748"/><rect x="1015.3" y="764.1" width="17.6" height="12.2" rx="2.5" fill="#242e3d"/><rect x="978.1" y="765.4" width="91.8" height="9.5" rx="3" fill="#b98d5e"/><rect x="980.1" y="774.9" width="5.4" height="17.6" fill="#5c4a36"/><rect x="1062.5" y="774.9" width="5.4" height="17.6" fill="#5c4a36"/><circle cx="264.4" cy="792.4" r="10.8" fill="#8a6248"/><rect x="251.8" y="803.2" width="25.2" height="54.0" rx="12.6" fill="#4a5568"/><rect x="252.7" y="841.0" width="23.4" height="16.2" rx="2.5" fill="#242e3d"/><rect x="203.2" y="842.8" width="122.4" height="12.6" rx="3" fill="#b98d5e"/><rect x="205.2" y="855.4" width="7.2" height="23.4" fill="#5c4a36"/><rect x="316.4" y="855.4" width="7.2" height="23.4" fill="#5c4a36"/><circle cx="646.1" cy="792.4" r="10.8" fill="#8a6248"/><rect x="633.5" y="803.2" width="25.2" height="54.0" rx="12.6" fill="#2d3748"/><rect x="634.4" y="841.0" width="23.4" height="16.2" rx="2.5" fill="#242e3d"/><rect x="584.9" y="842.8" width="122.4" height="12.6" rx="3" fill="#b98d5e"/><rect x="586.9" y="855.4" width="7.2" height="23.4" fill="#5c4a36"/><rect x="698.1" y="855.4" width="7.2" height="23.4" fill="#5c4a36"/><circle cx="1035.8" cy="792.4" r="10.8" fill="#8a6248"/><rect x="1023.2" y="803.2" width="25.2" height="54.0" rx="12.6" fill="#1a202c"/><rect x="1024.1" y="841.0" width="23.4" height="16.2" rx="2.5" fill="#242e3d"/><rect x="974.6" y="842.8" width="122.4" height="12.6" rx="3" fill="#b98d5e"/><rect x="976.6" y="855.4" width="7.2" height="23.4" fill="#5c4a36"/><rect x="1087.8" y="855.4" width="7.2" height="23.4" fill="#5c4a36"/><rect width="1600" height="1000" fill="url(#vig)"/><rect width="1600" height="1000" filter="url(#grain)" opacity="0.55"/></svg>
