<svg xmlns="http://www.w3.org/2000/svg" viewBox="0 0 1600 1000" preserveAspectRatio="xMidYMid slice"><defs>
  <linearGradient id="sky" x1="0" y1="0" x2="0" y2="1"><stop offset="0" stop-color="#9db8d4"/><stop offset="1" stop-color="#e3ecf3"/></linearGradient>
  <radialGradient id="glow"><stop offset="0" stop-color="#fff4d6" stop-opacity="0.9"/><stop offset="1" stop-color="#fff4d6" stop-opacity="0"/></radialGradient>
  <radialGradient id="vig" cx="0.5" cy="0.45" r="0.75"><stop offset="0.55" stop-color="#1a202c" stop-opacity="0"/><stop offset="1" stop-color="#1a202c" stop-opacity="0.38"/></radialGradient>
  <linearGradient id="haze" x1="0" y1="0" x2="0" y2="1"><stop offset="0.55" stop-color="#ffffff" stop-opacity="0"/><stop offset="1" stop-color="#ffffff" stop-opacity="0.35"/></linearGradient>
  <linearGradient id="wall" x1="0" y1="0" x2="0" y2="1"><stop offset="0" stop-color="#46536b"/><stop offset="1" stop-color="#2f3a4e"/></linearGradient>
  <linearGradient id="labwall" x1="0" y1="0" x2="0" y2="1"><stop offset="0" stop-color="#33424f"/><stop offset="1" stop-color="#24303c"/></linearGradient>
  <linearGradient id="floor" x1="0" y1="0" x2="0" y2="1"><stop offset="0" stop-color="#9a7b58"/><stop offset="1" stop-color="#6e563d"/></linearGradient>
  <linearGradient id="avbg" x1="0" y1="0" x2="1" y2="1"><stop offset="0" stop-color="#e8edf3"/><stop offset="1" stop-color="#cfd9e4"/></linearGradient>
  <filter id="grain"><feTurbulence type="fractalNoise" baseFrequency="0.9" numOctaves="2" stitchTiles="stitch"/><feColorMatrix type="matrix" values="0 0 0 0 0 0 0 0 0 0 0 0 0 0 0 0 0 0 0.05 0"/></filter>
</defs><rect width="1600" height="1000" fill="url(#sky)"/><circle cx="320.0" cy="200.0" r="200.0" fill="url(#glow)"/><path d="M0 520.0 Q 400.0 470.0 800.0 520.0 T 1600.0 520.0 L 1600.0 1000.0 L 0 1000.0 Z" fill="#6d8a5e" opacity="1"/><path d="M0 680.0 Q 400.0 640.0 800.0 680.0 T 1600.0 680.0 L 1600.0 1000.0 L 0 1000.0 Z" fill="#46603e" opacity="1"/><rect x="1088.0" y="500.0" width="384.0" height="260.0" fill="none" stroke="#eef2f5" stroke-width="7"/><line x1="1142.9" y1="500.0" x2="1142.9" y2="760.0" stroke="#eef2f5" stroke-width="1.5" opacity="0.35"/><line x1="1197.7" y1="500.0" x2="1197.7" y2="760.0" stroke="#eef2f5" stroke-width="1.5" opacity="0.35"/><line x1="1252.6" y1="500.0" x2="1252.6" y2="760.0" stroke="#eef2f5" stroke-width="1.5" opacity="0.35"/><line x1="1307.4" y1="500.0" x2="1307.4" y2="760.0" stroke="#eef2f5" stroke-width="1.5" opacity="0.35"/><line x1="1362.3" y1="500.0" x2="1362.3" y2="760.0" stroke="#eef2f5" stroke-width="1.5" opacity="0.35"/><line x1="1417.1" y1="500.0" x2="1417.1" y2="760.0" stroke="#eef2f5" stroke-width="1.5" opacity="0.35"/><line x1="1088.0" y1="565.0" x2="1472.0" y2="565.0" stroke="#eef2f5" stroke-width="1.5" opacity="0.35"/><line x1="1088.0" y1="630.0" x2="1472.0" y2="630.0" stroke="#eef2f5" stroke-width="1.5" opacity="0.35"/><line x1="1088.0" y1="695.0" x2="1472.0" y2="695.0" stroke="#eef2f5" stroke-width="1.5" opacity="0.35"/><ellipse cx="909.2" cy="797.4" rx="25.5" ry="5.4" fill="#1a202c" opacity="0.16"/><circle cx="909.2" cy="740.1" r="9.6" fill="#8a6248"/><line x1="899.7" y1="756.0" x2="886.9" y2="733.7" stroke="#31405c" stroke-width="6.4" stroke-linecap="round"/><line x1="918.8" y1="756.0" x2="931.5" y2="733.7" stroke="#31405c" stroke-width="6.4" stroke-linecap="round"/><rect x="898.1" y="749.6" width="22.3" height="47.8" rx="11.2" fill="#31405c"/><rect x="898.9" y="783.1" width="20.7" height="14.3" rx="2.5" fill="#242e3d"/><ellipse cx="963.0" cy="816.7" rx="37.8" ry="8.0" fill="#1a202c" opacity="0.16"/><circle cx="963.0" cy="731.7" r="14.2" fill="#8a6248"/><line x1="948.8" y1="755.3" x2="929.9" y2="722.2" stroke="#1a202c" stroke-width="9.4" stroke-linecap="round"/><line x1="977.1" y1="755.3" x2="996.0" y2="722.2" stroke="#1a202c" stroke-width="9.4" stroke-linecap="round"/><rect x="946.4" y="745.8" width="33.1" height="70.8" rx="16.5" fill="#1a202c"/><rect x="947.6" y="795.4" width="30.7" height="21.3" rx="2.5" fill="#242e3d"/><ellipse cx="704.1" cy="720.5" rx="40.7" ry="8.6" fill="#1a202c" opacity="0.16"/><circle cx="704.1" cy="628.9" r="15.3" fill="#8a6248"/><line x1="688.8" y1="654.3" x2="668.5" y2="618.7" stroke="#5c6b84" stroke-width="10.2" stroke-linecap="round"/><line x1="719.4" y1="654.3" x2="739.7" y2="618.7" stroke="#5c6b84" stroke-width="10.2" stroke-linecap="round"/><rect x="686.3" y="644.2" width="35.6" height="76.3" rx="17.8" fill="#5c6b84"/><rect x="687.6" y="697.6" width="33.1" height="22.9" rx="2.5" fill="#242e3d"/><ellipse cx="983.5" cy="733.3" rx="32.3" ry="6.9" fill="#1a202c" opacity="0.16"/><circle cx="983.5" cy="660.6" r="12.1" fill="#8a6248"/><line x1="971.4" y1="680.8" x2="955.3" y2="652.6" stroke="#31405c" stroke-width="8.1" stroke-linecap="round"/><line x1="995.6" y1="680.8" x2="1011.8" y2="652.6" stroke="#31405c" stroke-width="8.1" stroke-linecap="round"/><rect x="969.4" y="672.7" width="28.2" height="60.5" rx="14.1" fill="#31405c"/><rect x="970.4" y="715.1" width="26.2" height="18.2" rx="2.5" fill="#242e3d"/><ellipse cx="713.4" cy="968.5" rx="33.9" ry="7.2" fill="#1a202c" opacity="0.16"/><circle cx="713.4" cy="892.2" r="12.7" fill="#8a6248"/><line x1="700.7" y1="913.4" x2="683.7" y2="883.7" stroke="#1a202c" stroke-width="8.5" stroke-linecap="round"/><line x1="726.1" y1="913.4" x2="743.1" y2="883.7" stroke="#1a202c" stroke-width="8.5" stroke-linecap="round"/><rect x="698.6" y="904.9" width="29.7" height="63.6" rx="14.8" fill="#1a202c"/><rect x="699.6" y="949.4" width="27.5" height="19.1" rx="2.5" fill="#242e3d"/><ellipse cx="960.0" cy="860.0" rx="22.4" ry="4.8" fill="#1a202c" opacity="0.16"/><circle cx="960.0" cy="835.0" r="22.0" fill="#f4f1e6"/><circle cx="960.0" cy="835.0" r="9.0" fill="#2d3748"/><rect width="1600" height="1000" fill="url(#haze)" opacity="0.4"/><rect width="1600" height="1000" fill="url(#vig)"/><rect width="1600" height="1000" filter="url(#grain)" opacity="0.55"/></svg>
