<svg xmlns="http://www.w3.org/2000/svg" viewBox="0 0 900 1150" preserveAspectRatio="xMidYMid slice"><defs>
  <linearGradient id="sky" x1="0" y1="0" x2="0" y2="1"><stop offset="0" stop-color="#c5d6e4"/><stop offset="1" stop-color="#f2ecdf"/></linearGradient>
  <radialGradient id="glow"><stop offset="0" stop-color="#fff4d6" stop-opacity="0.9"/><stop offset="1" stop-color="#fff4d6" stop-opacity="0"/></radialGradient>
  <radialGradient id="vig" cx="0.5" cy="0.45" r="0.75"><stop offset="0.55" stop-color="#1a202c" stop-opacity="0"/><stop offset="1" stop-color="#1a202c" stop-opacity="0.38"/></radialGradient>
  <linearGradient id="haze" x1="0" y1="0" x2="0" y2="1"><stop offset="0.55" stop-color="#ffffff" stop-opacity="0"/><stop offset="1" stop-color="#ffffff" stop-opacity="0.35"/></linearGradient>
  <linearGradient id="wall" x1="0" y1="0" x2="0" y2="1"><stop offset="0" stop-color="#46536b"/><stop offset="1" stop-color="#2f3a4e"/></linearGradient>
  <linearGradient id="labwall" x1="0" y1="0" x2="0" y2="1"><stop offset="0" stop-color="#33424f"/><stop offset="1" stop-color="#24303c"/></linearGradient>
  <linearGradient id="floor" x1="0" y1="0" x2="0" y2="1"><stop offset="0" stop-color="#9a7b58"/><stop offset="1" stop-color="#6e563d"/></linearGradient>
  <linearGradient id="avbg" x1="0" y1="0" x2="1" y2="1"><stop offset="0" stop-color="#e8edf3"/><stop offset="1" stop-color="#cfd9e4"/></linearGradient>
  <filter id="grain"><feTurbulence type="fractalNoise" baseFrequency="0.9" numOctaves="2" stitchTiles="stitch"/><feColorMatrix type="matrix" values="0 0 0 0 0 0 0 0 0 0 0 0 0 0 0 0 0 0 0.05 0"/></filter>
</defs><rect width="900" height="1150" fill="url(#sky)"/><circle cx="684.0" cy="299.0" r="253.0" fill="url(#glow)"/><path d="M277.0 113.0 q 7.3 -7.3469534907490015 14.7 0 q 7.3 -7.3469534907490015 14.7 0" stroke="#2d3748" stroke-width="2" fill="none" opacity="0.5" stroke-linecap="round"/><path d="M756.6 43.5 q 5.9 -5.9286815179511905 11.9 0 q 5.9 -5.9286815179511905 11.9 0" stroke="#2d3748" stroke-width="2" fill="none" opacity="0.5" stroke-linecap="round"/><path d="M548.6 87.3 q 7.2 -7.157604962587357 14.3 0 q 7.2 -7.157604962587357 14.3 0" stroke="#2d3748" stroke-width="2" fill="none" opacity="0.5" stroke-linecap="round"/><path d="M152.0 82.7 q 7.0 -7.04443181399256 14.1 0 q 7.0 -7.04443181399256 14.1 0" stroke="#2d3748" stroke-width="2" fill="none" opacity="0.5" stroke-linecap="round"/><g opacity="0.55"><rect x="15.0" y="520.0" width="186.0" height="10" fill="#48566b"/><rect x="18.0" y="529.0" width="180.0" height="230.0" rx="2" fill="#48566b"/><path d="M95.4 759.0 v-65.6 a12.6 12.6 0 0 1 25.2 0 v65.6 z" fill="#242e3d"/><rect x="36.2" y="564.5" width="19.2" height="46.9" rx="2" fill="#e8d9a8" opacity="0.45"/><rect x="67.1" y="564.5" width="19.2" height="46.9" rx="2" fill="#e8d9a8" opacity="0.78"/><rect x="98.1" y="564.5" width="19.2" height="46.9" rx="2" fill="#e8d9a8" opacity="0.56"/><rect x="129.1" y="564.5" width="19.2" height="46.9" rx="2" fill="#e8d9a8" opacity="0.89"/><rect x="160.0" y="564.5" width="19.2" height="46.9" rx="2" fill="#e8d9a8" opacity="0.67"/><rect x="36.2" y="642.7" width="19.2" height="46.9" rx="2" fill="#e8d9a8" opacity="0.67"/><rect x="67.1" y="642.7" width="19.2" height="46.9" rx="2" fill="#e8d9a8" opacity="0.45"/><rect x="129.1" y="642.7" width="19.2" height="46.9" rx="2" fill="#e8d9a8" opacity="0.56"/><rect x="160.0" y="642.7" width="19.2" height="46.9" rx="2" fill="#e8d9a8" opacity="0.89"/><rect x="18.0" y="549.7" width="180.0" height="2.5" fill="#d4a853" opacity="0.85"/></g><rect x="177.0" y="382.0" width="546.0" height="10" fill="#3d4a5c"/><rect x="180.0" y="391.0" width="540.0" height="391.0" rx="2" fill="#3d4a5c"/><path d="M428.0 782.0 v-110.9 a22.0 22.0 0 0 1 44.0 0 v110.9 z" fill="#242e3d"/><rect x="227.1" y="444.3" width="32.0" height="53.2" rx="2" fill="#e8d9a8" opacity="0.45"/><rect x="278.7" y="444.3" width="32.0" height="53.2" rx="2" fill="#e8d9a8" opacity="0.78"/><rect x="330.3" y="444.3" width="32.0" height="53.2" rx="2" fill="#e8d9a8" opacity="0.56"/><rect x="381.9" y="444.3" width="32.0" height="53.2" rx="2" fill="#e8d9a8" opacity="0.89"/><rect x="433.5" y="444.3" width="32.0" height="53.2" rx="2" fill="#e8d9a8" opacity="0.67"/><rect x="485.1" y="444.3" width="32.0" height="53.2" rx="2" fill="#e8d9a8" opacity="0.45"/><rect x="536.7" y="444.3" width="32.0" height="53.2" rx="2" fill="#e8d9a8" opacity="0.78"/><rect x="588.3" y="444.3" width="32.0" height="53.2" rx="2" fill="#e8d9a8" opacity="0.56"/><rect x="639.9" y="444.3" width="32.0" height="53.2" rx="2" fill="#e8d9a8" opacity="0.89"/><rect x="227.1" y="532.9" width="32.0" height="53.2" rx="2" fill="#e8d9a8" opacity="0.67"/><rect x="278.7" y="532.9" width="32.0" height="53.2" rx="2" fill="#e8d9a8" opacity="0.45"/><rect x="330.3" y="532.9" width="32.0" height="53.2" rx="2" fill="#e8d9a8" opacity="0.78"/><rect x="381.9" y="532.9" width="32.0" height="53.2" rx="2" fill="#e8d9a8" opacity="0.56"/><rect x="433.5" y="532.9" width="32.0" height="53.2" rx="2" fill="#e8d9a8" opacity="0.89"/><rect x="485.1" y="532.9" width="32.0" height="53.2" rx="2" fill="#e8d9a8" opacity="0.67"/><rect x="536.7" y="532.9" width="32.0" height="53.2" rx="2" fill="#e8d9a8" opacity="0.45"/><rect x="588.3" y="532.9" width="32.0" height="53.2" rx="2" fill="#e8d9a8" opacity="0.78"/><rect x="639.9" y="532.9" width="32.0" height="53.2" rx="2" fill="#e8d9a8" opacity="0.56"/><rect x="227.1" y="621.5" width="32.0" height="53.2" rx="2" fill="#e8d9a8" opacity="0.89"/><rect x="278.7" y="621.5" width="32.0" height="53.2" rx="2" fill="#e8d9a8" opacity="0.67"/><rect x="330.3" y="621.5" width="32.0" height="53.2" rx="2" fill="#e8d9a8" opacity="0.45"/><rect x="381.9" y="621.5" width="32.0" height="53.2" rx="2" fill="#e8d9a8" opacity="0.78"/><rect x="485.1" y="621.5" width="32.0" height="53.2" rx="2" fill="#e8d9a8" opacity="0.89"/><rect x="536.7" y="621.5" width="32.0" height="53.2" rx="2" fill="#e8d9a8" opacity="0.67"/><rect x="588.3" y="621.5" width="32.0" height="53.2" rx="2" fill="#e8d9a8" opacity="0.45"/><rect x="639.9" y="621.5" width="32.0" height="53.2" rx="2" fill="#e8d9a8" opacity="0.78"/><rect x="180.0" y="426.2" width="540.0" height="2.5" fill="#d4a853" opacity="0.85"/><path d="M0 784.0 Q 225.0 726.5 450.0 784.0 T 900.0 784.0 L 900.0 1150.0 L 0 1150.0 Z" fill="#7d9468" opacity="1"/><path d="M0 885.5 Q 225.0 851.0 450.0 885.5 T 900.0 885.5 L 900.0 1150.0 L 0 1150.0 Z" fill="#597350" opacity="1"/><polygon points="424.0,782.0 476.0,782.0 774.0,1150.0 126.0,1150.0" fill="#ddd0b8" opacity="0.9"/><line x1="136.2" y1="970.2" x2="136.2" y2="894.0" stroke="#4a3f35" stroke-width="9.5"/><circle cx="136.2" cy="851.7" r="48.6" fill="#3f5a4a"/><circle cx="104.5" cy="877.1" r="31.7" fill="#3f5a4a"/><circle cx="170.1" cy="872.9" r="33.8" fill="#3f5a4a"/><line x1="86.1" y1="921.3" x2="86.1" y2="854.4" stroke="#4a3f35" stroke-width="8.4"/><circle cx="86.1" cy="817.2" r="42.8" fill="#35503f"/><circle cx="58.2" cy="839.5" r="27.9" fill="#35503f"/><circle cx="115.8" cy="835.8" r="29.8" fill="#35503f"/><line x1="89.5" y1="835.7" x2="89.5" y2="795.2" stroke="#4a3f35" stroke-width="5.1"/><circle cx="89.5" cy="772.7" r="25.9" fill="#35503f"/><circle cx="72.6" cy="786.2" r="16.9" fill="#35503f"/><circle cx="107.5" cy="783.9" r="18.0" fill="#35503f"/><line x1="123.0" y1="830.4" x2="123.0" y2="761.0" stroke="#4a3f35" stroke-width="8.7"/><circle cx="123.0" cy="722.5" r="44.3" fill="#3f5a4a"/><circle cx="94.1" cy="745.6" r="28.9" fill="#3f5a4a"/><circle cx="153.8" cy="741.8" r="30.8" fill="#3f5a4a"/><line x1="52.8" y1="964.0" x2="52.8" y2="920.8" stroke="#4a3f35" stroke-width="5.4"/><circle cx="52.8" cy="896.8" r="27.6" fill="#35503f"/><circle cx="34.8" cy="911.2" r="18.0" fill="#35503f"/><circle cx="72.0" cy="908.8" r="19.2" fill="#35503f"/><ellipse cx="336.4" cy="1112.8" rx="29.6" ry="6.3" fill="#1a202c" opacity="0.16"/><circle cx="336.4" cy="1046.1" r="11.1" fill="#8a6248"/><rect x="323.5" y="1057.2" width="25.9" height="55.6" rx="13.0" fill="#1a202c"/><rect x="324.4" y="1096.1" width="24.1" height="16.7" rx="2.5" fill="#242e3d"/><ellipse cx="359.8" cy="1098.5" rx="33.4" ry="7.1" fill="#1a202c" opacity="0.16"/><circle cx="359.8" cy="1023.3" r="12.5" fill="#8a6248"/><rect x="345.2" y="1035.8" width="29.3" height="62.7" rx="14.6" fill="#2d3748"/><rect x="346.3" y="1079.7" width="27.2" height="18.8" rx="2.5" fill="#242e3d"/><ellipse cx="211.4" cy="983.0" rx="32.3" ry="6.9" fill="#1a202c" opacity="0.16"/><circle cx="211.4" cy="910.2" r="12.1" fill="#8a6248"/><rect x="197.2" y="922.3" width="28.3" height="60.6" rx="14.2" fill="#2d3748"/><rect x="198.2" y="964.8" width="26.3" height="18.2" rx="2.5" fill="#242e3d"/><ellipse cx="215.6" cy="1137.1" rx="31.2" ry="6.6" fill="#1a202c" opacity="0.16"/><circle cx="215.6" cy="1067.0" r="11.7" fill="#8a6248"/><rect x="202.0" y="1078.6" width="27.3" height="58.4" rx="13.6" fill="#1a202c"/><rect x="203.0" y="1119.5" width="25.3" height="17.5" rx="2.5" fill="#242e3d"/><rect width="900" height="1150" fill="url(#haze)" opacity="0.5"/><rect width="900" height="1150" fill="url(#vig)"/><rect width="900" height="1150" filter="url(#grain)" opacity="0.55"/></svg>
