<svg xmlns="http://www.w3.org/2000/svg" viewBox="0 0 1200 900" preserveAspectRatio="xMidYMid slice"><defs>
  <linearGradient id="sky" x1="0" y1="0" x2="0" y2="1"><stop offset="0" stop-color="#9db8d4"/><stop offset="1" stop-color="#e3ecf3"/></linearGradient>
  <radialGradient id="glow"><stop offset="0" stop-color="#fff4d6" stop-opacity="0.9"/><stop offset="1" stop-color="#fff4d6" stop-opacity="0"/></radialGradient>
  <radialGradient id="vig" cx="0.5" cy="0.45" r="0.75"><stop offset="0.55" stop-color="#1a202c" stop-opacity="0"/><stop offset="1" stop-color="#1a202c" stop-opacity="0.38"/></radialGradient>
  <linearGradient id="haze" x1="0" y1="0" x2="0" y2="1"><stop offset="0.55" stop-color="#ffffff" stop-opacity="0"/><stop offset="1" stop-color="#ffffff" stop-opacity="0.35"/></linearGradient>
  <linearGradient id="wall" x1="0" y1="0" x2="0" y2="1"><stop offset="0" stop-color="#46536b"/><stop offset="1" stop-color="#2f3a4e"/></linearGradient>
  <linearGradient id="labwall" x1="0" y1="0" x2="0" y2="1"><stop offset="0" stop-color="#33424f"/><stop offset="1" stop-color="#24303c"/></linearGradient>
  <linearGradient id="floor" x1="0" y1="0" x2="0" y2="1"><stop offset="0" stop-color="#9a7b58"/><stop offset="1" stop-color="#6e563d"/></linearGradient>
  <linearGradient id="avbg" x1="0" y1="0" x2="1" y2="1"><stop offset="0" stop-color="#e8edf3"/><stop offset="1" stop-color="#cfd9e4"/></linearGradient>
  <filter id="grain"><feTurbulence type="fractalNoise" baseFrequency="0.9" numOctaves="2" stitchTiles="stitch"/><feColorMatrix type="matrix" values="0 0 0 0 0 0 0 0 0 0 0 0 0 0 0 0 0 0 0.05 0"/></filter>
</defs><rect width="1200" height="900" fill="url(#sky)"/><circle cx="240.0" cy="180.0" r="180.0" fill="url(#glow)"/><path d="M0 468.0 Q 300.0 423.0 600.0 468.0 T 1200.0 468.0 L 1200.0 900.0 L 0 900.0 Z" fill="#6d8a5e" opacity="1"/><path d="M0 612.0 Q 300.0 576.0 600.0 612.0 T 1200.0 612.0 L 1200.0 900.0 L 0 900.0 Z" fill="#46603e" opacity="1"/><rect x="816.0" y="450.0" width="288.0" height="234.0" fill="none" stroke="#eef2f5" stroke-width="7"/><line x1="857.1" y1="450.0" x2="857.1" y2="684.0" stroke="#eef2f5" stroke-width="1.5" opacity="0.35"/><line x1="898.3" y1="450.0" x2="898.3" y2="684.0" stroke="#eef2f5" stroke-width="1.5" opacity="0.35"/><line x1="939.4" y1="450.0" x2="939.4" y2="684.0" stroke="#eef2f5" stroke-width="1.5" opacity="0.35"/><line x1="980.6" y1="450.0" x2="980.6" y2="684.0" stroke="#eef2f5" stroke-width="1.5" opacity="0.35"/><line x1="1021.7" y1="450.0" x2="1021.7" y2="684.0" stroke="#eef2f5" stroke-width="1.5" opacity="0.35"/><line x1="1062.9" y1="450.0" x2="1062.9" y2="684.0" stroke="#eef2f5" stroke-width="1.5" opacity="0.35"/><line x1="816.0" y1="508.5" x2="1104.0" y2="508.5" stroke="#eef2f5" stroke-width="1.5" opacity="0.35"/><line x1="816.0" y1="567.0" x2="1104.0" y2="567.0" stroke="#eef2f5" stroke-width="1.5" opacity="0.35"/><line x1="816.0" y1="625.5" x2="1104.0" y2="625.5" stroke="#eef2f5" stroke-width="1.5" opacity="0.35"/><ellipse cx="448.9" cy="747.1" rx="37.8" ry="8.0" fill="#1a202c" opacity="0.16"/><circle cx="448.9" cy="662.1" r="14.2" fill="#8a6248"/><line x1="434.7" y1="685.7" x2="415.8" y2="652.6" stroke="#31405c" stroke-width="9.5" stroke-linecap="round"/><line x1="463.1" y1="685.7" x2="482.0" y2="652.6" stroke="#31405c" stroke-width="9.5" stroke-linecap="round"/><rect x="432.4" y="676.3" width="33.1" height="70.9" rx="16.5" fill="#31405c"/><rect x="433.6" y="725.9" width="30.7" height="21.3" rx="2.5" fill="#242e3d"/><ellipse cx="701.6" cy="786.1" rx="36.2" ry="7.7" fill="#1a202c" opacity="0.16"/><circle cx="701.6" cy="704.6" r="13.6" fill="#8a6248"/><line x1="688.1" y1="727.2" x2="669.9" y2="695.5" stroke="#1a202c" stroke-width="9.1" stroke-linecap="round"/><line x1="715.2" y1="727.2" x2="733.4" y2="695.5" stroke="#1a202c" stroke-width="9.1" stroke-linecap="round"/><rect x="685.8" y="718.2" width="31.7" height="67.9" rx="15.9" fill="#1a202c"/><rect x="686.9" y="765.7" width="29.4" height="20.4" rx="2.5" fill="#242e3d"/><ellipse cx="477.1" cy="704.3" rx="31.3" ry="6.6" fill="#1a202c" opacity="0.16"/><circle cx="477.1" cy="633.9" r="11.7" fill="#8a6248"/><line x1="465.4" y1="653.4" x2="449.7" y2="626.1" stroke="#5c6b84" stroke-width="7.8" stroke-linecap="round"/><line x1="488.8" y1="653.4" x2="504.5" y2="626.1" stroke="#5c6b84" stroke-width="7.8" stroke-linecap="round"/><rect x="463.4" y="645.6" width="27.4" height="58.7" rx="13.7" fill="#5c6b84"/><rect x="464.4" y="686.7" width="25.4" height="17.6" rx="2.5" fill="#242e3d"/><ellipse cx="599.5" cy="717.7" rx="37.6" ry="8.0" fill="#1a202c" opacity="0.16"/><circle cx="599.5" cy="633.1" r="14.1" fill="#8a6248"/><line x1="585.4" y1="656.6" x2="566.6" y2="623.7" stroke="#31405c" stroke-width="9.4" stroke-linecap="round"/><line x1="613.6" y1="656.6" x2="632.4" y2="623.7" stroke="#31405c" stroke-width="9.4" stroke-linecap="round"/><rect x="583.0" y="647.2" width="32.9" height="70.5" rx="16.5" fill="#31405c"/><rect x="584.2" y="696.6" width="30.6" height="21.2" rx="2.5" fill="#242e3d"/><ellipse cx="561.4" cy="739.0" rx="33.2" ry="7.1" fill="#1a202c" opacity="0.16"/><circle cx="561.4" cy="664.3" r="12.4" fill="#8a6248"/><line x1="548.9" y1="685.0" x2="532.3" y2="656.0" stroke="#1a202c" stroke-width="8.3" stroke-linecap="round"/><line x1="573.8" y1="685.0" x2="590.4" y2="656.0" stroke="#1a202c" stroke-width="8.3" stroke-linecap="round"/><rect x="546.8" y="676.7" width="29.0" height="62.2" rx="14.5" fill="#1a202c"/><rect x="547.9" y="720.3" width="27.0" height="18.7" rx="2.5" fill="#242e3d"/><ellipse cx="720.0" cy="774.0" rx="22.4" ry="4.8" fill="#1a202c" opacity="0.16"/><circle cx="720.0" cy="751.5" r="19.8" fill="#f4f1e6"/><circle cx="720.0" cy="751.5" r="8.1" fill="#2d3748"/><rect width="1200" height="900" fill="url(#haze)" opacity="0.4"/><rect width="1200" height="900" fill="url(#vig)"/><rect width="1200" height="900" filter="url(#grain)" opacity="0.55"/></svg>
