<svg xmlns="http://www.w3.org/2000/svg" viewBox="0 0 1200 800" preserveAspectRatio="xMidYMid slice"><defs>
  <linearGradient id="sky" x1="0" y1="0" x2="0" y2="1"><stop offset="0" stop-color="#9db8d4"/><stop offset="1" stop-color="#e3ecf3"/></linearGradient>
  <radialGradient id="glow"><stop offset="0" stop-color="#fff4d6" stop-opacity="0.9"/><stop offset="1" stop-color="#fff4d6" stop-opacity="0"/></radialGradient>
  <radialGradient id="vig" cx="0.5" cy="0.45" r="0.75"><stop offset="0.55" stop-color="#1a202c" stop-opacity="0"/><stop offset="1" stop-color="#1a202c" stop-opacity="0.38"/></radialGradient>
  <linearGradient id="haze" x1="0" y1="0" x2="0" y2="1"><stop offset="0.55" stop-color="#ffffff" stop-opacity="0"/><stop offset="1" stop-color="#ffffff" stop-opacity="0.35"/></linearGradient>
  <linearGradient id="wall" x1="0" y1="0" x2="0" y2="1"><stop offset="0" stop-color="#46536b"/><stop offset="1" stop-color="#2f3a4e"/></linearGradient>
  <linearGradient id="labwall" x1="0" y1="0" x2="0" y2="1"><stop offset="0" stop-color="#33424f"/><stop offset="1" stop-color="#24303c"/></linearGradient>
  <linearGradient id="floor" x1="0" y1="0" x2="0" y2="1"><stop offset="0" stop-color="#9a7b58"/><stop offset="1" stop-color="#6e563d"/></linearGradient>
  <linearGradient id="avbg" x1="0" y1="0" x2="1" y2="1"><stop offset="0" stop-color="#e8edf3"/><stop offset="1" stop-color="#cfd9e4"/></linearGradient>
  <filter id="grain"><feTurbulence type="fractalNoise" baseFrequency="0.9" numOctaves="2" stitchTiles="stitch"/><feColorMatrix type="matrix" values="0 0 0 0 0 0 0 0 0 0 0 0 0 0 0 0 0 0 0.05 0"/></filter>
</defs><rect width="1200" height="800" fill="url(#sky)"/><circle cx="240.0" cy="160.0" r="160.0" fill="url(#glow)"/><path d="M0 416.0 Q 300.0 376.0 600.0 416.0 T 1200.0 416.0 L 1200.0 800.0 L 0 800.0 Z" fill="#6d8a5e" opacity="1"/><path d="M0 544.0 Q 300.0 512.0 600.0 544.0 T 1200.0 544.0 L 1200.0 800.0 L 0 800.0 Z" fill="#46603e" opacity="1"/><rect x="816.0" y="400.0" width="288.0" height="208.0" fill="none" stroke="#eef2f5" stroke-width="7"/><line x1="857.1" y1="400.0" x2="857.1" y2="608.0" stroke="#eef2f5" stroke-width="1.5" opacity="0.35"/><line x1="898.3" y1="400.0" x2="898.3" y2="608.0" stroke="#eef2f5" stroke-width="1.5" opacity="0.35"/><line x1="939.4" y1="400.0" x2="939.4" y2="608.0" stroke="#eef2f5" stroke-width="1.5" opacity="0.35"/><line x1="980.6" y1="400.0" x2="980.6" y2="608.0" stroke="#eef2f5" stroke-width="1.5" opacity="0.35"/><line x1="1021.7" y1="400.0" x2="1021.7" y2="608.0" stroke="#eef2f5" stroke-width="1.5" opacity="0.35"/><line x1="1062.9" y1="400.0" x2="1062.9" y2="608.0" stroke="#eef2f5" stroke-width="1.5" opacity="0.35"/><line x1="816.0" y1="452.0" x2="1104.0" y2="452.0" stroke="#eef2f5" stroke-width="1.5" opacity="0.35"/><line x1="816.0" y1="504.0" x2="1104.0" y2="504.0" stroke="#eef2f5" stroke-width="1.5" opacity="0.35"/><line x1="816.0" y1="556.0" x2="1104.0" y2="556.0" stroke="#eef2f5" stroke-width="1.5" opacity="0.35"/><path d="M72.0 80.0 Q 600.0 126.0 1128.0 80.0" stroke="#3a4556" stroke-width="2" fill="none"/><path d="M168.6 95.2 l 18 0 l -9 20 z" fill="#31405c"/><path d="M274.2 105.6 l 18 0 l -9 20 z" fill="#d4a853"/><path d="M379.8 112.9 l 18 0 l -9 20 z" fill="#31405c"/><path d="M485.4 117.3 l 18 0 l -9 20 z" fill="#d4a853"/><path d="M591.0 118.8 l 18 0 l -9 20 z" fill="#31405c"/><path d="M696.6 117.3 l 18 0 l -9 20 z" fill="#d4a853"/><path d="M802.2 112.9 l 18 0 l -9 20 z" fill="#31405c"/><path d="M907.8 105.6 l 18 0 l -9 20 z" fill="#d4a853"/><path d="M1013.4 95.2 l 18 0 l -9 20 z" fill="#31405c"/><ellipse cx="166.4" cy="609.6" rx="24.6" ry="5.2" fill="#1a202c" opacity="0.16"/><circle cx="166.4" cy="554.2" r="9.2" fill="#8a6248"/><line x1="157.2" y1="569.6" x2="144.9" y2="548.1" stroke="#31405c" stroke-width="6.1" stroke-linecap="round"/><line x1="175.7" y1="569.6" x2="187.9" y2="548.1" stroke="#31405c" stroke-width="6.1" stroke-linecap="round"/><rect x="155.7" y="563.5" width="21.5" height="46.1" rx="10.8" fill="#31405c"/><rect x="156.4" y="595.7" width="20.0" height="13.8" rx="2.5" fill="#242e3d"/><ellipse cx="650.2" cy="692.3" rx="41.2" ry="8.7" fill="#1a202c" opacity="0.16"/><circle cx="650.2" cy="599.7" r="15.4" fill="#8a6248"/><line x1="634.8" y1="625.4" x2="614.2" y2="589.4" stroke="#1a202c" stroke-width="10.3" stroke-linecap="round"/><line x1="665.7" y1="625.4" x2="686.2" y2="589.4" stroke="#1a202c" stroke-width="10.3" stroke-linecap="round"/><rect x="632.2" y="615.1" width="36.0" height="77.2" rx="18.0" fill="#1a202c"/><rect x="633.5" y="669.1" width="33.4" height="23.2" rx="2.5" fill="#242e3d"/><ellipse cx="349.7" cy="630.1" rx="25.4" ry="5.4" fill="#1a202c" opacity="0.16"/><circle cx="349.7" cy="573.1" r="9.5" fill="#8a6248"/><line x1="340.2" y1="588.9" x2="327.5" y2="566.7" stroke="#5c6b84" stroke-width="6.3" stroke-linecap="round"/><line x1="359.2" y1="588.9" x2="371.9" y2="566.7" stroke="#5c6b84" stroke-width="6.3" stroke-linecap="round"/><rect x="338.6" y="582.6" width="22.2" height="47.5" rx="11.1" fill="#5c6b84"/><rect x="339.4" y="615.9" width="20.6" height="14.3" rx="2.5" fill="#242e3d"/><ellipse cx="254.1" cy="766.3" rx="33.3" ry="7.1" fill="#1a202c" opacity="0.16"/><circle cx="254.1" cy="691.4" r="12.5" fill="#8a6248"/><line x1="241.6" y1="712.2" x2="224.9" y2="683.1" stroke="#31405c" stroke-width="8.3" stroke-linecap="round"/><line x1="266.6" y1="712.2" x2="283.2" y2="683.1" stroke="#31405c" stroke-width="8.3" stroke-linecap="round"/><rect x="239.5" y="703.9" width="29.1" height="62.5" rx="14.6" fill="#31405c"/><rect x="240.5" y="747.6" width="27.1" height="18.7" rx="2.5" fill="#242e3d"/><ellipse cx="327.2" cy="722.1" rx="31.4" ry="6.7" fill="#1a202c" opacity="0.16"/><circle cx="327.2" cy="651.4" r="11.8" fill="#8a6248"/><line x1="315.4" y1="671.0" x2="299.7" y2="643.5" stroke="#1a202c" stroke-width="7.9" stroke-linecap="round"/><line x1="338.9" y1="671.0" x2="354.6" y2="643.5" stroke="#1a202c" stroke-width="7.9" stroke-linecap="round"/><rect x="313.4" y="663.2" width="27.5" height="58.9" rx="13.7" fill="#1a202c"/><rect x="314.4" y="704.4" width="25.5" height="17.7" rx="2.5" fill="#242e3d"/><ellipse cx="720.0" cy="688.0" rx="22.4" ry="4.8" fill="#1a202c" opacity="0.16"/><circle cx="720.0" cy="668.0" r="17.6" fill="#f4f1e6"/><circle cx="720.0" cy="668.0" r="7.2" fill="#2d3748"/><rect width="1200" height="800" fill="url(#haze)" opacity="0.4"/><rect width="1200" height="800" fill="url(#vig)"/><rect width="1200" height="800" filter="url(#grain)" opacity="0.55"/></svg>
